<?xml version="1.0" encoding="UTF-8"?>
<svg width="60px" height="52px" viewBox="0 0 60 52" version="1.1" xmlns="http://www.w3.org/2000/svg" xmlns:xlink="http://www.w3.org/1999/xlink">
    <title>Group 14</title>
    <g id="Page-1" stroke="none" stroke-width="1" fill="none" fill-rule="evenodd">
        <g id="NFT" transform="translate(-32.000000, -32.000000)">
            <g id="Group-14" transform="translate(32.000000, 32.000000)">
                <path d="M38.2426407,4.24264069 L55.7573593,21.7573593 C58.1005051,24.1005051 58.1005051,27.8994949 55.7573593,30.2426407 L38.2426407,47.7573593 C35.8994949,50.1005051 32.1005051,50.1005051 29.7573593,47.7573593 L12.2426407,30.2426407 C9.89949494,27.8994949 9.89949494,24.1005051 12.2426407,21.7573593 L29.7573593,4.24264069 C32.1005051,1.89949494 35.8994949,1.89949494 38.2426407,4.24264069 Z" id="Rectangle-Copy" fill="#4EBB76"></path>
                <path d="M30.2426407,4.24264069 L47.7573593,21.7573593 C50.1005051,24.1005051 50.1005051,27.8994949 47.7573593,30.2426407 L30.2426407,47.7573593 C27.8994949,50.1005051 24.1005051,50.1005051 21.7573593,47.7573593 L4.24264069,30.2426407 C1.89949494,27.8994949 1.89949494,24.1005051 4.24264069,21.7573593 L21.7573593,4.24264069 C24.1005051,1.89949494 27.8994949,1.89949494 30.2426407,4.24264069 Z" id="Rectangle-Copy-2" fill="#4EBB76"></path>
                <path d="M34.2426407,4.24264069 L51.7573593,21.7573593 C54.1005051,24.1005051 54.1005051,27.8994949 51.7573593,30.2426407 L34.2426407,47.7573593 C31.8994949,50.1005051 28.1005051,50.1005051 25.7573593,47.7573593 L8.24264069,30.2426407 C5.89949494,27.8994949 5.89949494,24.1005051 8.24264069,21.7573593 L25.7573593,4.24264069 C28.1005051,1.89949494 31.8994949,1.89949494 34.2426407,4.24264069 Z" id="Rectangle" fill="#FF6431"></path>
            </g>
        </g>
    </g>
</svg>